<svg xmlns="http://www.w3.org/2000/svg" viewBox="0 0 500 500"><g id="freepik--background-simple--inject-62"><path d="M452.28,118.76q-2.49-4.14-5.18-8.12c-24-35.26-64-59.4-102.78-70.33a220.85,220.85,0,0,0-51.9-8C178.07,28.21,136.07,122.49,99.23,146.79S5.85,212.62,13,299.84c5.38,66.32,43.11,129.73,112,158.58a194.27,194.27,0,0,0,23.91,8.25,227.93,227.93,0,0,0,50.5,7.77c52.09,2.32,94.39-10.24,135.76-41.86,9.62-7.35,19.19-15.64,31.67-16.55,9.07-.66,17.67,2.6,8.19,11.37-11.15,10.3,1.71,30.57,30,16.49,47.25-23.52,66.69-74.26,75.85-125.85C492.08,254.71,486.63,176,452.28,118.76Z" style="fill:#C4C4C4"></path><path d="M452.28,118.76q-2.49-4.14-5.18-8.12c-24-35.26-64-59.4-102.78-70.33a220.85,220.85,0,0,0-51.9-8C178.07,28.21,136.07,122.49,99.23,146.79S5.85,212.62,13,299.84c5.38,66.32,43.11,129.73,112,158.58a194.27,194.27,0,0,0,23.91,8.25,227.93,227.93,0,0,0,50.5,7.77c52.09,2.32,94.39-10.24,135.76-41.86,9.62-7.35,19.19-15.64,31.67-16.55,9.07-.66,17.67,2.6,8.19,11.37-11.15,10.3,1.71,30.57,30,16.49,47.25-23.52,66.69-74.26,75.85-125.85C492.08,254.71,486.63,176,452.28,118.76Z" style="fill:#fff;opacity:0.7000000000000001"></path></g><g id="freepik--Floor--inject-62"><line x1="44.24" y1="434.07" x2="466.46" y2="434.07" style="fill:none;stroke:#263238;stroke-miterlimit:10"></line></g><g id="freepik--Device--inject-62"><path d="M158.31,104H378.14a0,0,0,0,1,0,0V374a8.53,8.53,0,0,1-8.53,8.53H166.84a8.53,8.53,0,0,1-8.53-8.53V104A0,0,0,0,1,158.31,104Z" style="fill:#fff;stroke:#263238;stroke-miterlimit:10"></path><rect x="164.63" y="104.04" width="207.2" height="265.91" style="fill:#fff;stroke:#263238;stroke-miterlimit:10"></rect><rect x="164.63" y="351.62" width="207.2" height="18.33" style="fill:#C4C4C4;stroke:#263238;stroke-miterlimit:10"></rect><circle cx="210.52" cy="197.37" r="26.06" style="fill:#263238"></circle><circle cx="270.76" cy="197.37" r="26.06" style="fill:#263238"></circle><circle cx="331" cy="197.37" r="26.06" style="fill:#263238"></circle><path d="M192.6,190.72s11.49-31.37,18.24-31.37,18.61,31,18.61,31l-2,.18s-11.67-27.18-15.14-28.82-9.85,8.21-17.69,29Z" style="fill:#fff;stroke:#263238;stroke-linecap:round;stroke-linejoin:round"></path><path d="M194.19,188.9h33.67a4.32,4.32,0,0,1,4.32,4.32V211a3.46,3.46,0,0,1-3.46,3.46h-35.4a3.46,3.46,0,0,1-3.46-3.46V193.22A4.32,4.32,0,0,1,194.19,188.9Z" style="fill:#fff;stroke:#263238;stroke-linecap:round;stroke-linejoin:round"></path><line x1="190.23" y1="202.58" x2="228.54" y2="202.58" style="fill:#fff;stroke:#263238;stroke-linecap:round;stroke-linejoin:round"></line><path d="M230.18,189.81s-.91,1.1-.91,4.2-1.1,19.52-.91,20.25,1.27.18,1.27.18" style="fill:#fff;stroke:#263238;stroke-linecap:round;stroke-linejoin:round"></path><rect x="207.93" y="198.93" width="2.92" height="6.57" style="fill:#fff;stroke:#263238;stroke-linecap:round;stroke-linejoin:round"></rect><path d="M247.94,182.12s12.19-1.06,26.49-1.06,21,.89,21.19,1.77-1.94,12.36-1.94,13.42,0,15.89-.36,16.77-1.94,1.59-2.64,1.77-37.79.53-38.85.53a2.12,2.12,0,0,1-1.94-2.12c0-1.06.53-12.71-.36-16.95S247.94,182.12,247.94,182.12Z" style="fill:#fff;stroke:#263238;stroke-linecap:round;stroke-linejoin:round"></path><path d="M261,188s-.18-13.95,1.24-18.72a9.91,9.91,0,0,1,9.36-7.06,13.11,13.11,0,0,1,11.83,9.71c1.76,6.89.35,15.54.17,16.42s-2.12,3.36-2.47-1.41.35-15.89-1.06-19.07a8.41,8.41,0,0,0-9.18-4.59c-3.71.88-5.65,2.47-6.36,7.06s.71,15.19-.17,17.48S261.36,191.13,261,188Z" style="fill:#fff;stroke:#263238;stroke-linecap:round;stroke-linejoin:round"></path><path d="M251.3,182.3s-.88,9.36-.88,12.89-.18,5.83-.18,5.83" style="fill:#fff;stroke:#263238;stroke-linecap:round;stroke-linejoin:round"></path><path d="M292.62,182.48s.35,9.35.35,14.83" style="fill:none;stroke:#263238;stroke-linecap:round;stroke-linejoin:round"></path><path d="M338.14,180.69a.93.93,0,0,1-.87-.78c-1.74-10.89-3.93-22.88-5-26.78-1.65,3.68-5.27,15.39-8.27,26a.92.92,0,1,1-1.78-.5c0-.07,1.93-6.85,4-13.63,4.36-14.12,5.17-14.4,5.83-14.63a1,1,0,0,1,1,.14c.48.35,1.13.83,3.73,15.18,1.25,6.93,2.36,13.82,2.37,13.89a.93.93,0,0,1-.77,1.06Z" style="fill:#fff;stroke:#263238;stroke-linecap:round;stroke-linejoin:round"></path><path d="M308.88,177.66s17.95-1.11,24.14-.86,17.18.93,17.15,1.61-.26,23.41-.91,28-3.85,10.18-6.65,11.21-12.19.65-17,.46-9.15-.83-11.32-3.9-3.72-16-3.72-16Z" style="fill:#fff;stroke:#263238;stroke-linecap:round;stroke-linejoin:round"></path><path d="M323.14,182.6a1.84,1.84,0,1,0-1.91,1.76A1.83,1.83,0,0,0,323.14,182.6Z" style="fill:#fff;stroke:#263238;stroke-linecap:round;stroke-linejoin:round"></path><path d="M340.32,183.52a1.84,1.84,0,1,0-1.91,1.76A1.83,1.83,0,0,0,340.32,183.52Z" style="fill:#fff;stroke:#263238;stroke-linecap:round;stroke-linejoin:round"></path><path d="M312,207.86s12.9-1.09,36.49.1" style="fill:#fff;stroke:#263238;stroke-linecap:round;stroke-linejoin:round"></path><rect x="180.56" y="133.77" width="178.08" height="14.48" style="fill:#263238"></rect><line x1="266.94" y1="142.01" x2="284.59" y2="142.01" style="fill:none;stroke:#fff;stroke-miterlimit:10;stroke-width:2px"></line><line x1="305.02" y1="142.01" x2="322.67" y2="142.01" style="fill:none;stroke:#fff;stroke-miterlimit:10;stroke-width:2px"></line><path d="M353.07,137.53a.38.38,0,0,0-.3-.15h-9.68l-.37-1.12a.4.4,0,0,0-.36-.26h-2.45a.38.38,0,1,0,0,.76h2.18l2.36,7.09a.39.39,0,0,0,.36.26H345a1.25,1.25,0,0,0-.21.69,1.3,1.3,0,1,0,2.59,0,1.25,1.25,0,0,0-.21-.69h1.81a1.25,1.25,0,0,0-.21.69,1.3,1.3,0,1,0,2.59,0,1.25,1.25,0,0,0-.21-.69h.29a.38.38,0,1,0,0-.76h-6.31l-.41-1.24h7a.37.37,0,0,0,.36-.27l1.07-4A.38.38,0,0,0,353.07,137.53Zm-7,7.81a.54.54,0,0,1,0-1.08.54.54,0,1,1,0,1.08Zm4,0a.54.54,0,1,1,.55-.54A.54.54,0,0,1,350,145.34Zm1-4h-1.39v-3.23H351Zm-3.54-3.23h1.39v3.23h-1.39Zm-.75,3.23h-1.39v-3.23h1.39Zm-3.39-3.23h1.25v3.23h-.17Zm8.43,1.9v-1.9h.51Z" style="fill:#fff"></path><path d="M252.39,145.35H187.21a4.34,4.34,0,0,1-4.35-4.34h0a4.35,4.35,0,0,1,4.35-4.35h65.18a4.34,4.34,0,0,1,4.34,4.35h0A4.34,4.34,0,0,1,252.39,145.35Z" style="fill:#fff"></path><line x1="197.13" y1="231.55" x2="223.82" y2="231.55" style="fill:none;stroke:#263238;stroke-linecap:round;stroke-linejoin:round;stroke-width:2px"></line><line x1="197.13" y1="236.61" x2="223.82" y2="236.61" style="fill:none;stroke:#263238;stroke-linecap:round;stroke-linejoin:round;stroke-width:2px"></line><line x1="257.41" y1="231.55" x2="284.1" y2="231.55" style="fill:none;stroke:#263238;stroke-linecap:round;stroke-linejoin:round;stroke-width:2px"></line><line x1="257.41" y1="236.61" x2="284.1" y2="236.61" style="fill:none;stroke:#263238;stroke-linecap:round;stroke-linejoin:round;stroke-width:2px"></line><line x1="317.69" y1="231.55" x2="344.38" y2="231.55" style="fill:none;stroke:#263238;stroke-linecap:round;stroke-linejoin:round;stroke-width:2px"></line><line x1="317.69" y1="236.61" x2="344.38" y2="236.61" style="fill:none;stroke:#263238;stroke-linecap:round;stroke-linejoin:round;stroke-width:2px"></line><rect x="164.63" y="104.04" width="207.2" height="35.05" style="fill:#C4C4C4;stroke:#263238;stroke-miterlimit:10"></rect><path d="M158.31,128.74c.26,0,.51,0,.77,0a13.34,13.34,0,0,0,12.57-8.91,13.33,13.33,0,0,0,25.91-4.43c0-.22,0-.43,0-.64h.13c0,.21,0,.42,0,.64a13.34,13.34,0,0,0,26.68,0c0-.22,0-.43,0-.64h.12c0,.21,0,.42,0,.64a13.34,13.34,0,1,0,26.67,0c0-.22,0-.43,0-.64h.12c0,.21,0,.42,0,.64a13.34,13.34,0,1,0,26.67,0c0-.22,0-.43,0-.64h.44c0,.21,0,.42,0,.64a13.34,13.34,0,1,0,26.67,0c0-.22,0-.43,0-.64h.12c0,.21,0,.42,0,.64a13.34,13.34,0,0,0,26.68,0c0-.22,0-.43,0-.64h1.4c0,.21,0,.42,0,.64a13.34,13.34,0,1,0,26.67,0c0-.22,0-.43,0-.64h.12c0,.21,0,.42,0,.64a13.33,13.33,0,0,0,18.54,12.28V104H158.31Z" style="fill:#263238"></path><path d="M145.79,109.22c0,.29,0,.59,0,.88a13.34,13.34,0,1,0,26.68,0c0-.29,0-.59,0-.88Z" style="fill:#fff;stroke:#263238;stroke-linecap:round;stroke-linejoin:round"></path><path d="M170.93,109.22c0,.29-.05.59-.05.88a13.34,13.34,0,0,0,26.68,0c0-.29,0-.59-.05-.88Z" style="fill:#C4C4C4;stroke:#263238;stroke-linecap:round;stroke-linejoin:round"></path><path d="M197.66,109.22c0,.29,0,.59,0,.88a13.34,13.34,0,0,0,26.68,0c0-.29,0-.59,0-.88Z" style="fill:#fff;stroke:#263238;stroke-linecap:round;stroke-linejoin:round"></path><path d="M224.39,109.22c0,.29,0,.59,0,.88a13.34,13.34,0,1,0,26.67,0c0-.29,0-.59,0-.88Z" style="fill:#C4C4C4;stroke:#263238;stroke-linecap:round;stroke-linejoin:round"></path><path d="M251.12,109.22c0,.29,0,.59,0,.88a13.34,13.34,0,1,0,26.67,0c0-.29,0-.59,0-.88Z" style="fill:#fff;stroke:#263238;stroke-linecap:round;stroke-linejoin:round"></path><path d="M278.17,109.22c0,.29,0,.59,0,.88a13.34,13.34,0,1,0,26.67,0c0-.29,0-.59,0-.88Z" style="fill:#C4C4C4;stroke:#263238;stroke-linecap:round;stroke-linejoin:round"></path><path d="M304.91,109.22c0,.29-.05.59-.05.88a13.34,13.34,0,0,0,26.68,0c0-.29,0-.59-.05-.88Z" style="fill:#fff;stroke:#263238;stroke-linecap:round;stroke-linejoin:round"></path><path d="M332.91,109.22c0,.29,0,.59,0,.88a13.34,13.34,0,1,0,26.67,0c0-.29,0-.59,0-.88Z" style="fill:#C4C4C4;stroke:#263238;stroke-linecap:round;stroke-linejoin:round"></path><path d="M359.64,109.22c0,.29,0,.59,0,.88a13.34,13.34,0,1,0,26.67,0c0-.29,0-.59,0-.88Z" style="fill:#fff;stroke:#263238;stroke-linecap:round;stroke-linejoin:round"></path><polygon points="169.46 67.67 145.79 109.46 386.61 109.46 364.07 67.67 169.46 67.67" style="fill:#fff;stroke:#263238;stroke-linecap:round;stroke-linejoin:round"></polygon><polygon points="169.46 67.67 145.79 109.46 359.45 109.46 342.12 67.67 169.46 67.67" style="fill:#C4C4C4;stroke:#263238;stroke-linecap:round;stroke-linejoin:round"></polygon><polygon points="169.46 67.67 145.79 109.46 332.07 109.46 320 67.67 169.46 67.67" style="fill:#fff;stroke:#263238;stroke-linecap:round;stroke-linejoin:round"></polygon><polygon points="169.46 67.67 145.79 109.46 305.32 109.46 298.38 67.67 169.46 67.67" style="fill:#C4C4C4;stroke:#263238;stroke-linecap:round;stroke-linejoin:round"></polygon><polygon points="169.46 67.67 145.79 109.46 277.82 109.46 276.16 67.67 169.46 67.67" style="fill:#fff;stroke:#263238;stroke-linecap:round;stroke-linejoin:round"></polygon><polygon points="169.46 67.67 145.79 109.46 250.78 109.46 254.31 67.67 169.46 67.67" style="fill:#C4C4C4;stroke:#263238;stroke-linecap:round;stroke-linejoin:round"></polygon><polygon points="169.46 67.67 145.79 109.46 224.4 109.46 232.99 67.67 169.46 67.67" style="fill:#fff;stroke:#263238;stroke-linecap:round;stroke-linejoin:round"></polygon><polygon points="169.46 67.67 145.79 109.46 197.79 109.46 211.48 67.67 169.46 67.67" style="fill:#C4C4C4;stroke:#263238;stroke-linecap:round;stroke-linejoin:round"></polygon><polygon points="169.46 67.67 145.79 109.46 171.32 109.46 190.09 67.67 169.46 67.67" style="fill:#fff;stroke:#263238;stroke-linecap:round;stroke-linejoin:round"></polygon><path d="M242.07,286.38a9,9,0,0,1-5.13-1.23,6.06,6.06,0,0,1-2.42-3.43,18.09,18.09,0,0,1-.65-5.16h5.87a16.09,16.09,0,0,0,.22,2.92,3.28,3.28,0,0,0,.79,1.77,2.16,2.16,0,0,0,1.71.55,1.86,1.86,0,0,0,1.66-.87,5.34,5.34,0,0,0,.63-2.36q.12-1.54.12-3.63a20.45,20.45,0,0,0-.2-3,4.47,4.47,0,0,0-.77-2.05,2.07,2.07,0,0,0-1.75-.75,2.29,2.29,0,0,0-1.76.75,4.6,4.6,0,0,0-1,2.13h-5.21l.43-18.13h14.67v5.24h-9.66l-.35,7.06a3.62,3.62,0,0,1,1.59-1,8,8,0,0,1,2.43-.51,5.85,5.85,0,0,1,4.12,1,6.86,6.86,0,0,1,2.42,3.49,17.32,17.32,0,0,1,.79,5.61,32.43,32.43,0,0,1-.31,4.68,10.28,10.28,0,0,1-1.22,3.7,6.26,6.26,0,0,1-2.61,2.43A9.66,9.66,0,0,1,242.07,286.38Z" style="fill:#263238"></path><path d="M262.65,286.38a8.83,8.83,0,0,1-4.77-1.19,7.36,7.36,0,0,1-2.84-3.25,11.44,11.44,0,0,1-.95-4.79V262.84a12.22,12.22,0,0,1,.91-4.91,7,7,0,0,1,2.8-3.29,9,9,0,0,1,4.85-1.19,8.83,8.83,0,0,1,4.79,1.19,7.07,7.07,0,0,1,2.78,3.29,12.4,12.4,0,0,1,.91,4.91v14.31a11.44,11.44,0,0,1-.95,4.79,7.36,7.36,0,0,1-2.84,3.25A8.66,8.66,0,0,1,262.65,286.38Zm0-5.37a1.75,1.75,0,0,0,1.54-.67,4,4,0,0,0,.63-1.59A10.9,10.9,0,0,0,265,277V263a12.91,12.91,0,0,0-.14-1.81,4.08,4.08,0,0,0-.61-1.64,1.82,1.82,0,0,0-1.58-.69,1.85,1.85,0,0,0-1.6.69,3.71,3.71,0,0,0-.63,1.64,12.91,12.91,0,0,0-.14,1.81V277a10.9,10.9,0,0,0,.16,1.72,3.62,3.62,0,0,0,.67,1.59A1.8,1.8,0,0,0,262.65,281Z" style="fill:#263238"></path><path d="M282.21,271.79q-3.87,0-5.52-2.09T275,263.51v-1.62q0-4.18,1.62-6.13c1.07-1.3,2.93-1.95,5.56-1.95s4.52.63,5.6,1.91,1.61,3.29,1.61,6v1.85c0,2.69-.54,4.72-1.64,6.1S284.83,271.79,282.21,271.79Zm0-3.91a1.84,1.84,0,0,0,1.49-.55,2.78,2.78,0,0,0,.59-1.58,20.85,20.85,0,0,0,.12-2.4V262a12.59,12.59,0,0,0-.29-3.16c-.2-.71-.84-1.06-1.91-1.06s-1.69.35-1.9,1A11.93,11.93,0,0,0,280,262v1.42a16.47,16.47,0,0,0,.14,2.38,2.93,2.93,0,0,0,.61,1.56A1.8,1.8,0,0,0,282.21,267.88Zm3.86,17.94,9.58-31.93h3.59l-9.58,31.93Zm17,.08c-2.6,0-4.45-.69-5.54-2.09s-1.63-3.44-1.63-6.15V276q0-4.14,1.59-6.12t5.58-2c2.66,0,4.52.64,5.6,1.91s1.62,3.3,1.62,6.06v1.81c0,2.73-.55,4.79-1.66,6.15S305.7,285.9,303.1,285.9Zm0-3.9a1.82,1.82,0,0,0,1.48-.55,3.1,3.1,0,0,0,.59-1.56,16.22,16.22,0,0,0,.14-2.35v-1.46a11.85,11.85,0,0,0-.31-3.17c-.22-.7-.85-1-1.9-1s-1.68.35-1.89,1.06a11.88,11.88,0,0,0-.31,3.15v1.46a20.26,20.26,0,0,0,.11,2.35,2.85,2.85,0,0,0,.61,1.56A1.92,1.92,0,0,0,303.1,282Z" style="fill:#263238"></path><path d="M246.13,338.06a14.56,14.56,0,0,1-7.79-1.82,10.05,10.05,0,0,1-4.15-5.23,23.37,23.37,0,0,1-1.25-8.08V305.69a22.57,22.57,0,0,1,1.25-8,9.83,9.83,0,0,1,4.15-5.1,18.32,18.32,0,0,1,15.67,0,10,10,0,0,1,4.16,5.1,22.31,22.31,0,0,1,1.28,8V323a22.68,22.68,0,0,1-1.28,8,10.44,10.44,0,0,1-4.16,5.23A14.47,14.47,0,0,1,246.13,338.06Zm0-6.2a4.45,4.45,0,0,0,3.1-.91,4.57,4.57,0,0,0,1.34-2.5,16.4,16.4,0,0,0,.34-3.47V303.75a16,16,0,0,0-.34-3.47,4.34,4.34,0,0,0-1.34-2.41,4.55,4.55,0,0,0-3.1-.89,4.49,4.49,0,0,0-3,.89,4.32,4.32,0,0,0-1.37,2.41,16.66,16.66,0,0,0-.34,3.47V325a17.88,17.88,0,0,0,.32,3.47,4.32,4.32,0,0,0,1.33,2.5A4.49,4.49,0,0,0,246.13,331.86Z" style="fill:#263238"></path><path d="M265.65,337.44V291.35h18.94v5.8H274.07v13.43h8.59v5.86h-8.59v21Z" style="fill:#263238"></path><path d="M289,337.44V291.35h18.95v5.8H297.4v13.43H306v5.86H297.4v21Z" style="fill:#263238"></path></g><g id="freepik--character-2--inject-62"><path d="M387.58,233.08s-4.4,0-12.93,23.72c-1.33,3.68-5.91,9.28-5.91,9.28l13.15,9.28,8.2-39.07Z" style="fill:#C4C4C4;stroke:#263238;stroke-miterlimit:10"></path><path d="M404.17,190.05s-2.16-1.5-1.57-2.92,4.76-2.93,8.12-4,14.11,1.12,18.44,6.33,1.93,12.39,1,15.47,4.59,4.92,7.2,8.87.9,7.37.47,9.05,7.81,1.68,9.05,7.92-2.67,11.46-2.76,12.15,3,8.19,1.06,13.68S434.64,263,431.7,262.2s-4.26-4-4.26-4-6.86-14.52-14.55-18.4S399.8,231.37,400,224.34s6.63-9.67,7.19-11.63S404.17,190.05,404.17,190.05Z" style="fill:#263238;stroke:#263238;stroke-miterlimit:10"></path><path d="M378.31,311.51l.18,10.35s-3,21-2.1,39.64.35,40.75,1.2,47.8-.38,24.53-1,26.82-1.9,2.37-5,4.08-12.26,4-12,5.86,6.19,2.95,9.71,2.52,9.37-2.51,9.93-2.55,2.71,1.31,3.71-.44,1.59-9.65,1.7-10.78,5.94-19.86,7-29.09a107,107,0,0,0,.19-21.9c-.43-3.53-1.76-6.62-1.38-9.26s12-31.68,12-31.68l11.69,36.92s1,14.94,2.83,19.49,4.65,32.42,4.55,33.73a57.08,57.08,0,0,1-2.15,6.88s-5.84,10.32-4,12.25,8-.17,10.21-3.88,1.92-13,2.14-15.29S433,405.12,432,395.65s-3.84-17.88-4.8-23.61-.07-28.43.25-32,1.87-13.78.7-19.87-2.61-10.86-2.61-10.86l-46.68-1.49Z" style="fill:#fff;stroke:#263238;stroke-miterlimit:10"></path><path d="M428.13,320.16c-1.16-6.1-2.61-10.86-2.61-10.86l-46.68-1.49-.53,3.7.18,10.35s-3,21-2.1,39.64.35,40.75,1.2,47.8a65.13,65.13,0,0,1,.29,7.94,23.31,23.31,0,0,0,11.45.53,103.2,103.2,0,0,0,2.42-12,107,107,0,0,0,.19-21.9c-.43-3.53-1.76-6.62-1.38-9.26s12-31.68,12-31.68l11.69,36.92s1,14.94,2.83,19.49c.91,2.27,2.07,10.37,3,18.06,2.09.73,5.36,1.16,10.21.16,1.18-8,2.23-17,1.71-21.86-1-9.47-3.84-17.88-4.8-23.61s-.07-28.43.25-32S429.3,326.25,428.13,320.16Z" style="fill:#263238;stroke:#263238;stroke-miterlimit:10"></path><path d="M377.18,441.69l-.47-1.46-1.59-1.39-.43-.25c-.74.44-1.72.88-3,1.61-3.07,1.7-12.26,4-12,5.86s6.19,2.95,9.71,2.52,9.37-2.51,9.93-2.55,2.71,1.31,3.71-.44c.56-1,1-3.86,1.28-6.41A32.11,32.11,0,0,1,377.18,441.69Z" style="fill:#fff;stroke:#263238;stroke-miterlimit:10"></path><path d="M426.32,438.87a4.08,4.08,0,0,0-2.06-2.85c-1.74-.81-4.79,3.88-4.79,3.88s-5.84,10.32-4,12.25,8-.17,10.21-3.88c1.51-2.56,1.85-7.81,2-11.55Z" style="fill:#fff;stroke:#263238;stroke-miterlimit:10"></path><path d="M409.41,223.14s-.76,2.94-1.45,4.92-.53,2.23-1.89,2.46-18.45,1-18.49,2.56S383,251.63,383,251.63s-1.28,15.49-.73,19.44-.3,23.82-.3,23.82l-3.68,16.62s5.54,6.63,22.65,5.47,25.33-3.8,25.33-3.8l-3.51-45.28L437.94,238l-17.13-9.15V214.66Z" style="fill:#fff;stroke:#263238;stroke-miterlimit:10"></path><line x1="397.51" y1="276.89" x2="411.15" y2="282.08" style="fill:none;stroke:#263238;stroke-miterlimit:10"></line><line x1="394.27" y1="278.18" x2="400.98" y2="281.43" style="fill:none;stroke:#263238;stroke-miterlimit:10"></line><path d="M414,308.05a161.58,161.58,0,0,1-18,3" style="fill:none;stroke:#263238;stroke-miterlimit:10"></path><path d="M402.27,308.7a109.92,109.92,0,0,1-11.25.43" style="fill:none;stroke:#263238;stroke-miterlimit:10"></path><path d="M420.81,228.83V214.66l-11.39,8.48s-.76,2.94-1.45,4.92-.53,2.23-1.89,2.46c-.34.06-1.83.21-3.89.43-.47,4-.71,13,6.83,14.56,7.3,1.48,12.78-9.47,15-14.95Z" style="fill:#fff;stroke:#263238;stroke-miterlimit:10"></path><path d="M404.89,189.07a22.91,22.91,0,0,0-2.86,6.52c-.61,3.07-.48,7-.63,8.85s-1.56,5.33-.4,8.27,3.74,10.48,5.87,11.43,5.8.3,9.11-1.58,6-8.39,6.24-11.29,1.91-6.32-4.36-13.46S404.89,189.07,404.89,189.07Z" style="fill:#fff;stroke:#263238;stroke-miterlimit:10"></path><path d="M407.84,202.07a10.82,10.82,0,0,1-.92,2.68c-.5.72-3.84,4.25-3.41,4.49a31.71,31.71,0,0,0,3.64.85" style="fill:none;stroke:#263238;stroke-miterlimit:10"></path><path d="M405.32,213.52a21.35,21.35,0,0,0,4.45-1.27,4.71,4.71,0,0,0,2.32-2.35s-.83,4-1.58,5.19S405.32,213.52,405.32,213.52Z" style="fill:none;stroke:#263238;stroke-miterlimit:10"></path><path d="M405.15,203.15c-.09.94-.54,1.67-1,1.62s-.74-.84-.65-1.79.54-1.67,1-1.62S405.24,202.2,405.15,203.15Z" style="fill:#263238"></path><path d="M413.1,204.6c-.09.94-.54,1.67-1,1.63s-.74-.85-.65-1.79.54-1.67,1-1.63S413.19,203.66,413.1,204.6Z" style="fill:#263238"></path><path d="M403,199.1a2.42,2.42,0,0,1,3.59.17" style="fill:none;stroke:#263238;stroke-miterlimit:10"></path><path d="M414.56,201.75c-1.41-2.52-4.39-1.77-4.39-1.77" style="fill:none;stroke:#263238;stroke-miterlimit:10"></path><path d="M401.17,231.27s-12.61,26.86-13.59,32.7.14,14.16-.44,15.71-4.47,33.32-4.62,37.18-.57,9.67-.57,9.67l-9-1.31a70.3,70.3,0,0,1,1.62-18.54c2.28-10.89,3.85-26.26,4.15-27.8s2.63-17.28,2.86-20.05,5.09-25.41,6-25.75S400,230.39,401.17,231.27Z" style="fill:#C4C4C4;stroke:#263238;stroke-miterlimit:10"></path><path d="M406,265.06s-33.59-.49-35.32.46c-1.33.73-2.77,1.07-3.82,2.27-3.1,3.51-2.11,9.34.69,12.71,2.34,2.83,6.38,1,9.35.26,3.83-1,7.64-2.1,11.45-3.21q9.32-2.7,18.59-5.55l.47-.14Z" style="fill:#fff;stroke:#263238;stroke-miterlimit:10"></path><path d="M370.72,265.52c-1.33.73-2.77,1.07-3.82,2.27-3.1,3.51-2.11,9.34.69,12.71,2.34,2.83,6.38,1,9.35.26l1.07-.3c-2-1.38-3.91-3.38-3.83-6.09a20.28,20.28,0,0,1,2.73-9.32C373.55,265.13,371.15,265.28,370.72,265.52Z" style="fill:#C4C4C4;stroke:#263238;stroke-miterlimit:10"></path><path d="M426.63,231.6S414.27,268.07,413.78,275s.88,51.24.88,51.24,1.24,0,9.89-.26a23.21,23.21,0,0,0,13.7-4.79s-10.33-34.5-10.78-36.95-1.7-16-1.7-16,17.92-24.55,18.06-26.49S426.63,231.6,426.63,231.6Z" style="fill:#C4C4C4;stroke:#263238;stroke-miterlimit:10"></path><path d="M422.94,269.07l3.71,3,1.59,4.77s-.17,1.59-.88,1.76a9.54,9.54,0,0,1-3.15-.92l-.74-.31s1.24,1.94.36,1.94-2.48-1.77-2.48-1.77l-1.59-1.23-4.59-1.95Z" style="fill:#fff;stroke:#263238;stroke-miterlimit:10"></path><path d="M419,273.94s3.75,1.57,4.52,3.44" style="fill:#fff;stroke:#263238;stroke-miterlimit:10"></path><path d="M421,272.06s5.13,2.65,6.33,6" style="fill:#fff;stroke:#263238;stroke-miterlimit:10"></path><path d="M422.46,270.69s4,2.31,5.13,4.37" style="fill:#fff;stroke:#263238;stroke-miterlimit:10"></path><path d="M428.42,239.22,411.81,268.9s2.83,6.71,3.89,7.24,10.07-7.95,10.07-7.95l10.6-15" style="fill:#C4C4C4;stroke:#263238;stroke-miterlimit:10"></path><polygon points="428.41 199.15 413.1 212.71 417.71 219.69 433.15 206.12 428.41 199.15" style="fill:#C4C4C4;stroke:#263238;stroke-miterlimit:10"></polygon><path d="M419.89,225.46a21.46,21.46,0,0,1-.29-4.25c.22-.84,2.6-6.23,2.6-6.23s-3.85-4-3.9-4.68.79-.61,1.35-.37a50.67,50.67,0,0,1,4.1,3.57l-2.41-5.06a36,36,0,0,1-2.26-2.87c-.47-.8,1.29-1.19,1.87-.82a25.46,25.46,0,0,1,3.56,3.75c.61.92,1.88,3.44,1.88,3.44s-1.17-5.14-2.38-6.71-1.17-3.08-.34-3,3.52,3.2,3.84,3.86,1.63,3.74,1.63,3.74-1.44-6.92-1.64-7.86,1.18-.91,1.83.56a80.33,80.33,0,0,1,1.94,8.39s-1.32,4.77-2,5.5-5.76,10.3-5.76,10.3-3.2,42.07-3.46,44c-.74,5.28-4.92,6.53-7.51,6.84s-7.21-.74-8.75-7.24,3.13-20.57,6.28-26.84S419.89,225.46,419.89,225.46Z" style="fill:#fff;stroke:#263238;stroke-miterlimit:10"></path><path d="M414.82,264c-3.34.93-8.16-1.76-10.54-3.29-.74,3.7-1,7.14-.45,9.54,1.54,6.5,6.15,7.56,8.75,7.24s6.77-1.56,7.51-6.84c.08-.57.42-4.81.87-10.44A17.66,17.66,0,0,1,414.82,264Z" style="fill:#C4C4C4;stroke:#263238;stroke-miterlimit:10"></path></g><g id="freepik--character-1--inject-62"><circle cx="120.96" cy="174.74" r="70.68" transform="translate(-88.13 136.71) rotate(-45)" style="fill:#fff"></circle><path d="M121,105.06a69.69,69.69,0,1,1-69.68,69.68A69.68,69.68,0,0,1,121,105.06m0-2a71.69,71.69,0,1,0,71.68,71.68A71.76,71.76,0,0,0,121,103.06Z" style="fill:#263238"></path><path d="M121,244.43a69.46,69.46,0,0,0,47.89-19.09,10.51,10.51,0,0,0-3.86-3c-2-.89-4.78-2.08-8.79-3.65-12.08-4.72-26.61-15.48-26.61-15.48l-28.13-7.74s-1.32.57-4.34,4.34c-2.15,2.69-20.74,12.26-31.28,17.55A69.52,69.52,0,0,0,121,244.43Z" style="fill:#263238;stroke:#263238;stroke-miterlimit:10"></path><path d="M104.4,218c6,8.95,21.72,17.09,29.69,11.7,4.62-3.12,5-12.28,3.24-21.17-4.59-3-7.74-5.31-7.74-5.31l-28.13-7.74s-1.32.57-4.34,4.34A8,8,0,0,1,95.69,201,86.62,86.62,0,0,0,104.4,218Z" style="fill:#fff;stroke:#263238;stroke-miterlimit:10"></path><polygon points="125.44 215.84 133.74 201.87 127.51 196.4 125.44 215.84" style="fill:#fff;stroke:#263238;stroke-miterlimit:10"></polygon><polygon points="133.74 201.87 140.35 216.97 129.4 209.04 133.74 201.87" style="fill:#fff;stroke:#263238;stroke-miterlimit:10"></polygon><polygon points="103.73 165.06 105.05 187.52 125.44 215.84 131.29 189.98 103.92 160.72 103.73 165.06" style="fill:#fff;stroke:#263238;stroke-miterlimit:10"></polygon><polygon points="118.33 187.26 128.77 201.67 131.26 191.73 118.33 187.26" style="fill:#263238;stroke:#263238;stroke-miterlimit:10"></polygon><polygon points="103.16 184.31 122.04 205.65 109.39 220.18 97.87 196.77 103.16 184.31" style="fill:#fff;stroke:#263238;stroke-miterlimit:10"></polygon><polygon points="122.04 205.65 125.44 215.84 119.39 208.85 122.04 205.65" style="fill:#fff;stroke:#263238;stroke-miterlimit:10"></polygon><path d="M102,156.56s-2.08-4.71-3.4-13.78,5.66-21,16.8-20.38,24.54,4.91,27.56,10,4.34,6.61,4.53,11.14-.75,20,.57,25.48-.38,16.43-6.61,20.58-10.57,4-17.56,1.32-11.13-9.25-14.53-14.72-6.23-11.71-6.61-13.41S102,156.56,102,156.56Z" style="fill:#fff;stroke:#263238;stroke-miterlimit:10"></path><path d="M134.87,144.86a31.36,31.36,0,0,0-.56,5.85c.19,1.7,3.77,13.59,4.15,16s-4.72,3.4-7.55,1.32-2.27-3.59-2.27-3.59" style="fill:none;stroke:#263238;stroke-miterlimit:10"></path><path d="M122.23,168.08s.18,6.8,9.06,7.36" style="fill:none;stroke:#263238;stroke-miterlimit:10"></path><line x1="123.92" y1="167.14" x2="119.77" y2="168.84" style="fill:none;stroke:#263238;stroke-miterlimit:10"></line><path d="M127.13,143.73s-5.66-4.53-12.27,1.32" style="fill:none;stroke:#263238;stroke-miterlimit:10"></path><path d="M136.76,144.11s5.1-2.65,8.5,1.7" style="fill:none;stroke:#263238;stroke-miterlimit:10"></path><path d="M123.74,152.6c0,1.56-.68,2.83-1.51,2.83s-1.51-1.27-1.51-2.83.67-2.83,1.51-2.83S123.74,151,123.74,152.6Z" style="fill:#263238"></path><path d="M142.8,152c0,1.57-.67,2.84-1.51,2.84s-1.51-1.27-1.51-2.84.68-2.83,1.51-2.83S142.8,150.47,142.8,152Z" style="fill:#263238"></path><path d="M100.33,157.13s3.58-.38,3.77-3.21-1.88-5.47.19-7.17,7.36-.57,6.23-6.42-5.85-9.06-.94-11,11.32.19,17.18,4.91,7.17-2.83,7.17-2.83,6.61,8.3,11.51,10,7.18,0,6.8-4.9-5.1-8.69-5.1-8.69,3,1.7,2.65-5.28-3.78-9.06-7.18-7.37-7.74,4.16-12.64,2.27-21.15-5.1-31.53-1.89-11.33,17.94-7.36,26.05,7.36,15.29,7.36,15.29Z" style="fill:#C4C4C4;stroke:#263238;stroke-miterlimit:10"></path><path d="M105.61,158.26s-6.41-7.55-9.25-4.53-.37,9.63,2.84,12.84,7.74,1.89,7.74,1.89" style="fill:none;stroke:#263238;stroke-miterlimit:10"></path><ellipse cx="97.26" cy="160.7" rx="9.34" ry="10.24" transform="translate(-46.12 39.35) rotate(-18.57)" style="fill:#263238;stroke:#263238;stroke-miterlimit:10"></ellipse><path d="M94.85,152.55a64.29,64.29,0,0,1-1.94-22c1-12.73,8.3-16.18,12.73-16.88l4.42.83s-6.36.28-10.65,8.72-3,23.38-1,31Z" style="fill:#263238;stroke:#263238;stroke-miterlimit:10"></path><path d="M100.66,168.87s11.62,13,29.88,15.08" style="fill:none;stroke:#263238;stroke-miterlimit:10"></path><path d="M133.86,183.81c0,.92-1.12,1.67-2.49,1.67s-2.49-.75-2.49-1.67,1.11-1.66,2.49-1.66S133.86,182.9,133.86,183.81Z" style="fill:#263238;stroke:#263238;stroke-miterlimit:10"></path></g><g id="freepik--Plant--inject-62"><path d="M87.08,321.68s-2.34,6.42-7.3,7.29-13.72-8.75-8.17-13.72S84.74,318.17,87.08,321.68Z" style="fill:#C4C4C4;stroke:#263238;stroke-linecap:round;stroke-linejoin:round"></path><path d="M94.67,290.15s-7.3,17.8-4.38,26.56,21,15.18,26.27,3.8-6.42-27.44-10.8-30.95S96.13,287.23,94.67,290.15Z" style="fill:#C4C4C4;stroke:#263238;stroke-linecap:round;stroke-linejoin:round"></path><path d="M137.29,297.74s-12.55,11.38-14,22.77,7,15.47,15.76,14,13.14-23.65,10.51-33.86S137.29,297.74,137.29,297.74Z" style="fill:#C4C4C4;stroke:#263238;stroke-linecap:round;stroke-linejoin:round"></path><path d="M139.62,360.79s-14,.59-14.59,7.3,6.13,8.17,12.84,2.34S145.46,361.08,139.62,360.79Z" style="fill:#C4C4C4;stroke:#263238;stroke-linecap:round;stroke-linejoin:round"></path><path d="M125.26,369.69s11-5.05,16-5.93" style="fill:none;stroke:#263238;stroke-linecap:round;stroke-linejoin:round"></path><path d="M104.89,374.8s-1.46,7-6.72,9.64-14.6-2.92-9.63-11.39S102.26,371.3,104.89,374.8Z" style="fill:#C4C4C4;stroke:#263238;stroke-linecap:round;stroke-linejoin:round"></path><path d="M92.62,352.91s-2.62-5.84-12.84-2-14.3,9.63-7.88,11.67S92.62,352.91,92.62,352.91Z" style="fill:#C4C4C4;stroke:#263238;stroke-linecap:round;stroke-linejoin:round"></path><path d="M90.67,352.64S79.84,353.81,74,358.79" style="fill:none;stroke:#263238;stroke-linecap:round;stroke-linejoin:round"></path><path d="M121.82,282.85s1.75,4.09,5.25,3.21,4.38-6.13,9.93-4.67,10.21,7.88,10.21,5-7-10.51-14.88-10.51S122.11,279.05,121.82,282.85Z" style="fill:#C4C4C4;stroke:#263238;stroke-linecap:round;stroke-linejoin:round"></path><path d="M114.79,399.79s1.31-24.43,0-39.7-7.41-33.15-7.41-33.15L100,294.14" style="fill:none;stroke:#263238;stroke-linecap:round;stroke-linejoin:round"></path><path d="M117.84,399.79s.44-20.07,2.19-33.15,8.72-33.59,8.72-33.59L141.86,305" style="fill:none;stroke:#263238;stroke-linecap:round;stroke-linejoin:round"></path><path d="M125.26,369.69s-3.05.87-4.8,30.53" style="fill:none;stroke:#263238;stroke-linecap:round;stroke-linejoin:round"></path><path d="M110.43,399.35s.87-15.7-.87-21.37-4.67-3.18-4.67-3.18-8.08.95-11,5.63" style="fill:none;stroke:#263238;stroke-linecap:round;stroke-linejoin:round"></path><path d="M112.43,372c2.29,12.79.18,26.93.18,26.93" style="fill:none;stroke:#263238;stroke-linecap:round;stroke-linejoin:round"></path><path d="M92.62,352.91s12.57-2.41,17.81,11.55a38.53,38.53,0,0,1,1.31,4.27" style="fill:none;stroke:#263238;stroke-linecap:round;stroke-linejoin:round"></path><path d="M145.08,339.39s2.63-5.84,12.85-2.05,14.3,9.64,7.88,11.68S145.08,339.39,145.08,339.39Z" style="fill:#C4C4C4;stroke:#263238;stroke-linecap:round;stroke-linejoin:round"></path><path d="M147.42,339.77s10.53-.58,15.5,5.56" style="fill:none;stroke:#263238;stroke-linecap:round;stroke-linejoin:round"></path><path d="M133.91,341.94a18.21,18.21,0,0,0-6.63,9c-5.23,14-4.64,48.42-4.64,48.42" style="fill:none;stroke:#263238;stroke-linecap:round;stroke-linejoin:round"></path><path d="M145.08,339.39a16.21,16.21,0,0,0-8.7,1.18" style="fill:none;stroke:#263238;stroke-linecap:round;stroke-linejoin:round"></path><path d="M100.84,330.58A41.14,41.14,0,0,1,108.25,344c7,20.07,9.59,45.81,8.29,55.4" style="fill:none;stroke:#263238;stroke-linecap:round;stroke-linejoin:round"></path><path d="M99.33,328.92c-6.17-6.3-12.25-7.24-12.25-7.24s-9-2.38-12.5.83" style="fill:none;stroke:#263238;stroke-linecap:round;stroke-linejoin:round"></path><path d="M118.57,349.36c-.43,25.32-.73,50.43-.73,50.43" style="fill:none;stroke:#263238;stroke-linecap:round;stroke-linejoin:round"></path><path d="M118.62,346.21c.29-16.75.63-33.14,1-41.95.87-22.68,2.23-21.41,2.23-21.41s1.61-5.09,10.68-4.51" style="fill:none;stroke:#263238;stroke-linecap:round;stroke-linejoin:round"></path><path d="M131.82,444.28H103.44a3.79,3.79,0,0,1-3.77-3.41L95.6,398.92h44.05l-4.07,41.95A3.79,3.79,0,0,1,131.82,444.28Z" style="fill:#263238;stroke:#263238;stroke-linecap:round;stroke-linejoin:round"></path><polygon points="96.91 412.44 97.38 417.24 137.88 417.24 138.34 412.44 96.91 412.44" style="fill:#fff;stroke:#263238;stroke-linecap:round;stroke-linejoin:round"></polygon><polygon points="136.86 427.7 137.11 425.09 98.14 425.09 98.39 427.7 136.86 427.7" style="fill:#fff;stroke:#263238;stroke-linecap:round;stroke-linejoin:round"></polygon></g></svg>
